<svg xmlns="http://www.w3.org/2000/svg" width="18.069" height="17.919" viewBox="0 0 18.069 17.919"><g transform="translate(0 -0.301)"><path d="M13.334,11.968H27.24A1.666,1.666,0,0,0,25.573,10.3H11.667A1.666,1.666,0,0,0,10,11.968V22.144a1.666,1.666,0,0,0,1.667,1.667V13.635A1.666,1.666,0,0,1,13.334,11.968Zm0,0" transform="translate(-9.583 -9.583)" fill="#d4e1f4"/><path d="M15.986.3H2.084A2.084,2.084,0,0,0,0,2.384V12.561a2.085,2.085,0,0,0,2.084,2.084H8.618v2.742H5.592a.417.417,0,0,0,0,.833h7.084a.417.417,0,0,0,0-.833H9.451V14.645h6.534a2.085,2.085,0,0,0,2.084-2.084V2.384A2.084,2.084,0,0,0,15.986.3Zm1.25,12.26a1.254,1.254,0,0,1-1.25,1.25H2.084a1.254,1.254,0,0,1-1.25-1.25V2.384a1.254,1.254,0,0,1,1.25-1.25H15.99a1.254,1.254,0,0,1,1.25,1.25V12.561Zm0,0" fill="#b0b3d0"/></g></svg>