<svg xmlns="http://www.w3.org/2000/svg" width="298.923" height="166.286" viewBox="0 0 298.923 166.286"><g transform="translate(0)"><path d="M28.921,166.639c85.029.36,171.129-.36,256.157,0,5.623-3.089,12.921-8.255,13.768-15.6.808-7.01-5-9.566-7.58-19.931-3.388-13.592,4.418-17.913.619-27.038-4.57-10.976-16.558-6.4-25.369-18.849-7.541-10.656-2.033-18.635-11.6-30.592a35.721,35.721,0,0,0-12.53-10.2c-11.712-5.561-17.231.612-27.535-2.317-17.8-5.062-16.141-27.7-35.115-33.064-9.054-2.56-17.491.317-19.182.927-13.288,4.8-12.733,15.24-23.049,17.768-12.005,2.942-18.645-9.751-32.021-6.644-8.16,1.9-13.108,8.343-15,10.815C76.23,50.479,88.4,76.634,79.65,80.734,74.217,83.28,69.185,73.361,57.065,74.4A25.81,25.81,0,0,0,38.5,85.215c-6.864,10.245.6,19.687-6.188,25.8-7.077,6.381-15.511-.052-23.668,6.026-8.315,6.2-11.934,22.108-4.95,34.3C8.9,160.42,17.986,166.925,28.921,166.639Z" transform="translate(0 -8)" fill="#f8f8fe"/><rect width="35.136" height="0.798" rx="0.399" transform="translate(231.046 157.945)" fill="#e2e6fb"/><path d="M465.114,372.773a19.032,19.032,0,0,0,1.983-8.519c0-9.838-7.3-17.813-16.3-17.813a15.668,15.668,0,0,0-11.981,5.73,13.908,13.908,0,0,0-8.02-2.563,13.612,13.612,0,0,0-2.388.207,11.678,11.678,0,0,0-6.452-1.949,12.429,12.429,0,0,0-11.03,7.182A13.105,13.105,0,0,0,402.75,367.5a22.831,22.831,0,0,0,1.2,5.342Z" transform="translate(-245.17 -214.022)" fill="#e1e5fa"/><path d="M514.322,369.175A18.738,18.738,0,0,0,515.9,376.8h48.914a14.014,14.014,0,0,0,.8-4.717c0-5.174-2.726-9.573-6.516-11.141-1.69-3.827-5-6.424-8.792-6.424a8.6,8.6,0,0,0-5.142,1.744,9.6,9.6,0,0,0-1.9-.186,10.287,10.287,0,0,0-6.394,2.295,12.023,12.023,0,0,0-9.551-5.129C520.144,353.234,514.322,360.371,514.322,369.175Z" transform="translate(-313.089 -218.159)" fill="#c5ccef"/><path d="M440.975,358.279c0,3.364-3.913,5.672-15.255,5.972s-16.559,11.856-16.559,11.856-2.06-6.017,1.1-10.71c1.3-1.925,3.394-2.585,5.72-4.712,2.787-2.55,2.212-5.7,7.927-6.517,4.917-.7,4.938,1.226,7.828,1.7,2.35.391,3-.279,4.917-.2C438.664,355.756,440.975,357.2,440.975,358.279Z" transform="translate(-248.671 -218.634)" fill="#bac4f4"/><path d="M521.316,369.175A18.738,18.738,0,0,0,522.9,376.8h48.914a14.015,14.015,0,0,0,.8-4.717c0-5.174-2.726-9.573-6.516-11.141-1.69-3.827-5-6.424-8.792-6.424a8.6,8.6,0,0,0-5.143,1.744,9.6,9.6,0,0,0-1.9-.186,10.286,10.286,0,0,0-6.394,2.295,12.024,12.024,0,0,0-9.551-5.129C527.138,353.234,521.316,360.371,521.316,369.175Z" transform="translate(-317.346 -218.159)" fill="#d6dbfa"/><path d="M547.285,367.312s-6.455-.582-9.34-.449-9.322,1.308-9.322,1.308,2.425-5.526,7.616-6.78C541.9,360.021,547.285,367.312,547.285,367.312Z" transform="translate(-321.794 -223.019)" fill="#bac4f4"/><path d="M168.039,333.592l18.5-51.368v51.368Z" transform="translate(-102.292 -174.931)" fill="#f1f2fe"/><path d="M211.666,328.5a3.913,3.913,0,0,1-3.913-3.914l.013-46.95a3.913,3.913,0,0,1,3.913-3.912h50.348a3.913,3.913,0,0,1,3.913,3.921l-.1,46.95a3.913,3.913,0,0,1-3.913,3.9Z" transform="translate(-126.468 -169.756)" fill="#e1e5fa"/><path d="M263.76,282.942H219.228a3.913,3.913,0,0,0-3.913,3.913v.4a3.913,3.913,0,0,0,3.913,3.913H263.76a3.913,3.913,0,0,0,3.913-3.913v-.4A3.913,3.913,0,0,0,263.76,282.942Z" transform="translate(-131.071 -175.368)" fill="#d6dbfa"/><path d="M279.618,286.493h-5.88a.748.748,0,1,0,0,1.5h5.88a.748.748,0,0,0,0-1.5Z" transform="translate(-166.18 -177.53)" fill="#bac4f4"/><path d="M306.442,314.328H288.372a3.913,3.913,0,0,0-3.913,3.913v27.634a3.912,3.912,0,0,0,3.913,3.913h18.071a3.912,3.912,0,0,0,3.913-3.913V318.241A3.913,3.913,0,0,0,306.442,314.328Z" transform="translate(-173.162 -194.474)" fill="#d6dbfa"/><path d="M236.352,314.328h-18.07a3.913,3.913,0,0,0-3.913,3.913v27.634a3.913,3.913,0,0,0,3.913,3.913h18.07a3.912,3.912,0,0,0,3.913-3.913V318.241A3.913,3.913,0,0,0,236.352,314.328Z" transform="translate(-130.495 -194.474)" fill="#d6dbfa"/><path d="M270.871,354.231a1.009,1.009,0,1,0-1.01-1.009A1.009,1.009,0,0,0,270.871,354.231Z" transform="translate(-164.275 -217.536)" fill="#bac4f4"/><path d="M290.67,354.231a1.009,1.009,0,1,0-1.01-1.009A1.009,1.009,0,0,0,290.67,354.231Z" transform="translate(-176.328 -217.536)" fill="#bac4f4"/><rect width="35.136" height="0.798" rx="0.399" transform="translate(72.135 160.87)" fill="#e2e6fb"/><path d="M144.2,393.432a12.789,12.789,0,0,1-1.345-5.749c0-6.639,4.952-12.02,11.061-12.02a10.654,10.654,0,0,1,8.129,3.867,9.474,9.474,0,0,1,5.441-1.73,9.271,9.271,0,0,1,1.62.14,7.953,7.953,0,0,1,4.377-1.315,8.435,8.435,0,0,1,7.484,4.846,8.842,8.842,0,0,1,5.545,8.4,15.332,15.332,0,0,1-.816,3.6Z" transform="translate(-86.963 -231.811)" fill="#e1e5fa"/><path d="M124.59,391a12.587,12.587,0,0,1-1.073,5.142H90.331a9.41,9.41,0,0,1-.545-3.183c0-3.492,1.849-6.459,4.421-7.518a6.731,6.731,0,0,1,5.965-4.335,5.856,5.856,0,0,1,3.489,1.177,6.554,6.554,0,0,1,1.292-.126,7,7,0,0,1,4.338,1.548,8.17,8.17,0,0,1,6.48-3.461C120.64,380.247,124.59,385.063,124.59,391Z" transform="translate(-54.656 -234.603)" fill="#c5ccef"/><path d="M194.227,383.652c0,2.27,2.655,3.827,10.35,4.03s11.235,8,11.235,8,1.4-4.061-.75-7.227c-.881-1.3-2.3-1.744-3.881-3.179-1.891-1.721-1.5-3.847-5.378-4.4-3.335-.474-3.35.827-5.311,1.15-1.595.264-2.037-.189-3.336-.135C195.794,381.95,194.227,382.925,194.227,383.652Z" transform="translate(-118.234 -234.923)" fill="#bac4f4"/><path d="M119.845,391a12.587,12.587,0,0,1-1.073,5.142H85.585a9.411,9.411,0,0,1-.545-3.183c0-3.492,1.849-6.459,4.421-7.518a6.731,6.731,0,0,1,5.965-4.335,5.856,5.856,0,0,1,3.489,1.177,6.554,6.554,0,0,1,1.292-.126,7,7,0,0,1,4.338,1.548,8.17,8.17,0,0,1,6.48-3.461C115.9,380.247,119.845,385.063,119.845,391Z" transform="translate(-51.767 -234.603)" fill="#d6dbfa"/><path d="M136.677,389.747s4.379-.393,6.337-.3,6.324.883,6.324.883-1.645-3.728-5.167-4.575C140.332,384.827,136.677,389.747,136.677,389.747Z" transform="translate(-83.201 -237.882)" fill="#bac4f4"/><path d="M273.884,389.479l0,0c-.058-.083-2.5-3.551-4.8-2.8-1.625.534-2.658,3.132-2.728,3.312a.012.012,0,0,0,.007.015l9.323,4.685L277.4,391.3Z" transform="translate(-162.142 -238.453)" fill="#fff" fill-rule="evenodd"/><g transform="translate(49.51 12.763)"><path d="M126.54,52.359a11.738,11.738,0,0,1,11.738-11.738h45.2a11.738,11.738,0,0,1,11.738,11.738V67.495a5.832,5.832,0,0,1-5.832,5.832,1.944,1.944,0,0,0-1.525,3.15l.56.707a2.38,2.38,0,0,1-3.226,3.431l-9.465-6.587a3.915,3.915,0,0,0-2.235-.7H138.278A11.738,11.738,0,0,1,126.54,61.589Z" transform="translate(-126.54 -40.621)" fill="#fff"/></g><path d="M145.726,65.344a5.412,5.412,0,0,1-1.92-.445V63.39a6.677,6.677,0,0,0,1.146.45,4.017,4.017,0,0,0,1.087.177,1.306,1.306,0,0,0,.564-.091.327.327,0,0,0,.182-.314.314.314,0,0,0-.132-.254,1.928,1.928,0,0,0-.432-.236q-.3-.132-.814-.318a3.745,3.745,0,0,1-.932-.477,1.722,1.722,0,0,1-.519-.6,1.9,1.9,0,0,1-.159-.823,1.477,1.477,0,0,1,.482-1.172,2.558,2.558,0,0,1,1.446-.523v-.623h.942V59.2a5.345,5.345,0,0,1,1.824.445l-.542,1.3a4.246,4.246,0,0,0-1.715-.427,1.056,1.056,0,0,0-.514.091.282.282,0,0,0-.146.259.332.332,0,0,0,.1.25,1.673,1.673,0,0,0,.373.218q.264.118.732.277a3.518,3.518,0,0,1,1.365.768,1.521,1.521,0,0,1,.414,1.1,1.661,1.661,0,0,1-.487,1.241,2.35,2.35,0,0,1-1.41.591v.877h-.942Z" transform="translate(-87.535 -38.797)" fill="#2c3652"/><path d="M160.5,61.95a2.009,2.009,0,0,1,1.033.268,1.8,1.8,0,0,1,.719.75,2.348,2.348,0,0,1,.259,1.122,2.159,2.159,0,0,1-.673,1.709,2.976,2.976,0,0,1-2.029.6,4.353,4.353,0,0,1-1.9-.359V64.563a4.8,4.8,0,0,0,.892.3,3.831,3.831,0,0,0,.86.118,1.228,1.228,0,0,0,.769-.209.753.753,0,0,0,.268-.627.713.713,0,0,0-.273-.6,1.333,1.333,0,0,0-.828-.214,2.981,2.981,0,0,0-.914.159l-.66-.327.25-3.508h3.794v1.5H159.8l-.082.877a3.692,3.692,0,0,1,.505-.073Q160.378,61.95,160.5,61.95Z" transform="translate(-96.127 -39.447)" fill="#2c3652"/><path d="M146.1,88.48h-1.123v3.855H144V88.48h-.757v-.457l.757-.3v-.3a1.663,1.663,0,0,1,.383-1.2,1.561,1.561,0,0,1,1.169-.395,3.123,3.123,0,0,1,1.015.17l-.258.74a2.257,2.257,0,0,0-.691-.116.566.566,0,0,0-.487.208,1.037,1.037,0,0,0-.149.615v.3H146.1Z" transform="translate(-87.195 -55.375)" fill="#2c3652"/><path d="M156.215,92.88a2.507,2.507,0,0,1-.578,1.758,2.072,2.072,0,0,1-1.609.631,2.2,2.2,0,0,1-1.14-.291,1.919,1.919,0,0,1-.761-.835,2.839,2.839,0,0,1-.266-1.263,2.489,2.489,0,0,1,.574-1.745,2.083,2.083,0,0,1,1.618-.627,2.025,2.025,0,0,1,1.581.644A2.47,2.47,0,0,1,156.215,92.88Zm-3.348,0q0,1.591,1.177,1.591t1.164-1.591q0-1.575-1.173-1.575a1.006,1.006,0,0,0-.894.407A2.085,2.085,0,0,0,152.867,92.88Z" transform="translate(-92.443 -58.226)" fill="#2c3652"/><path d="M168.2,90.508a2.358,2.358,0,0,1,.487.042l-.1.91a1.85,1.85,0,0,0-.432-.05,1.259,1.259,0,0,0-.952.382,1.385,1.385,0,0,0-.362.993v2.4h-.977V90.591h.765l.129.81h.05a1.824,1.824,0,0,1,.595-.652A1.428,1.428,0,0,1,168.2,90.508Z" transform="translate(-100.972 -58.226)" fill="#2c3652"/><path d="M184.8,95.186h-.982V92.352a1.275,1.275,0,0,0-.2-.785.734.734,0,0,0-.624-.262.955.955,0,0,0-.832.37A2.156,2.156,0,0,0,181.9,92.9v2.289h-.977V90.591h.765l.137.6h.05a1.276,1.276,0,0,1,.553-.507,1.8,1.8,0,0,1,.8-.179,1.4,1.4,0,0,1,1.406.723h.067a1.405,1.405,0,0,1,.574-.532,1.824,1.824,0,0,1,.849-.191,1.538,1.538,0,0,1,1.2.415,1.832,1.832,0,0,1,.379,1.267v3h-.977V92.352a1.255,1.255,0,0,0-.2-.785.735.735,0,0,0-.624-.262.973.973,0,0,0-.836.357,1.829,1.829,0,0,0-.262,1.089Z" transform="translate(-110.135 -58.226)" fill="#2c3652"/><path d="M203.318,95.269a2.238,2.238,0,0,1-1.68-.623,2.386,2.386,0,0,1-.6-1.724,2.6,2.6,0,0,1,.561-1.77,1.94,1.94,0,0,1,1.543-.644,1.9,1.9,0,0,1,1.439.553,2.11,2.11,0,0,1,.528,1.521v.528h-3.066a1.518,1.518,0,0,0,.362,1.03,1.266,1.266,0,0,0,.961.357,3.6,3.6,0,0,0,.757-.075,4.051,4.051,0,0,0,.757-.257v.793a2.986,2.986,0,0,1-.724.241A4.418,4.418,0,0,1,203.318,95.269Zm-.179-4.022a.99.99,0,0,0-.749.295,1.412,1.412,0,0,0-.333.86h2.088a1.261,1.261,0,0,0-.275-.86A.935.935,0,0,0,203.14,91.247Z" transform="translate(-122.378 -58.226)" fill="#2c3652"/><path d="M214.9,91.169h-.724l-.216-4.229h1.152Zm-.99,1.325a.565.565,0,0,1,.624-.627.6.6,0,0,1,.454.166.642.642,0,0,1,.158.461.661.661,0,0,1-.162.47.583.583,0,0,1-.449.17.625.625,0,0,1-.462-.166A.652.652,0,0,1,213.908,92.495Z" transform="translate(-130.214 -56.054)" fill="#2c3652"/><g transform="translate(68.409 19.145)"><path d="M179.1,65.44a4.254,4.254,0,1,0-4.259-4.254A4.257,4.257,0,0,0,179.1,65.44Z" transform="translate(-174.842 -56.931)" fill="none" stroke="#fff" stroke-width="4"/></g><g transform="translate(68.409 18.697)"><g opacity="0.3"><g opacity="0.3"><path d="M181.231,63.387A1.869,1.869,0,0,0,180,63.83a1.37,1.37,0,0,1-1.788,0,1.944,1.944,0,0,0-2.471,0,1.313,1.313,0,0,1-.894.332v.581a1.871,1.871,0,0,0,1.236-.443,1.37,1.37,0,0,1,1.788,0,1.944,1.944,0,0,0,2.471,0,1.37,1.37,0,0,1,1.788,0,1.872,1.872,0,0,0,1.236.443v-.582a1.312,1.312,0,0,1-.894-.332,1.87,1.87,0,0,0-1.235-.443Zm1.235-1.394a1.926,1.926,0,0,0-2.471,0,1.358,1.358,0,0,1-1.788,0,1.926,1.926,0,0,0-2.471,0,1.3,1.3,0,0,1-.894.336v.588a1.857,1.857,0,0,0,1.236-.448,1.357,1.357,0,0,1,1.788,0,1.926,1.926,0,0,0,2.471,0,1.357,1.357,0,0,1,1.788,0,1.857,1.857,0,0,0,1.236.448v-.588A1.3,1.3,0,0,1,182.466,61.993Zm0-2.073a1.926,1.926,0,0,0-2.471,0,1.357,1.357,0,0,1-1.788,0,1.926,1.926,0,0,0-2.471,0,1.3,1.3,0,0,1-.894.336v.588a1.857,1.857,0,0,0,1.236-.448,1.358,1.358,0,0,1,1.788,0,1.926,1.926,0,0,0,2.471,0,1.358,1.358,0,0,1,1.788,0,1.857,1.857,0,0,0,1.236.448v-.588A1.3,1.3,0,0,1,182.466,59.92Zm0-1.848a1.944,1.944,0,0,0-2.471,0,1.37,1.37,0,0,1-1.788,0,1.944,1.944,0,0,0-2.471,0,1.313,1.313,0,0,1-.894.332v.581a1.871,1.871,0,0,0,1.236-.443,1.371,1.371,0,0,1,1.788,0,1.944,1.944,0,0,0,2.471,0,1.37,1.37,0,0,1,1.788,0,1.872,1.872,0,0,0,1.236.443V58.4a1.312,1.312,0,0,1-.894-.332Zm-1.235-2.285A1.87,1.87,0,0,0,180,56.23a1.37,1.37,0,0,1-1.788,0,1.944,1.944,0,0,0-2.471,0,1.313,1.313,0,0,1-.894.332v.581a1.871,1.871,0,0,0,1.236-.443,1.37,1.37,0,0,1,1.788,0,1.944,1.944,0,0,0,2.471,0,1.37,1.37,0,0,1,1.788,0,1.871,1.871,0,0,0,1.236.443v-.581a1.312,1.312,0,0,1-.894-.332,1.871,1.871,0,0,0-1.235-.443Z" transform="translate(-174.842 -55.787)" fill-rule="evenodd"/></g></g><path d="M181.741,64.991a1.037,1.037,0,0,1-.315.81,1.287,1.287,0,0,1-.9.286h-.242v1.039h-.862V64h1.1a1.368,1.368,0,0,1,.908.259A.915.915,0,0,1,181.741,64.991Zm-1.454.407h.157a.433.433,0,0,0,.309-.107.385.385,0,0,0,.115-.3q0-.317-.358-.317h-.223ZM183,66.981a2.634,2.634,0,0,1-.921-.21V66.06a3.187,3.187,0,0,0,.55.211,1.931,1.931,0,0,0,.522.085.63.63,0,0,0,.272-.044.152.152,0,0,0,.086-.146.148.148,0,0,0-.063-.12.951.951,0,0,0-.207-.111q-.193-.081-.392-.15a1.78,1.78,0,0,1-.447-.226.8.8,0,0,1-.248-.28.862.862,0,0,1-.077-.387.69.69,0,0,1,.231-.552,1.239,1.239,0,0,1,.694-.246V63.8h.452v.289a2.6,2.6,0,0,1,.875.21l-.259.61a2.07,2.07,0,0,0-.823-.2.518.518,0,0,0-.246.042.136.136,0,0,0-.053.052.131.131,0,0,0-.018.071.151.151,0,0,0,.051.117.726.726,0,0,0,.178.1q.127.057.352.132a1.708,1.708,0,0,1,.655.361.712.712,0,0,1,.2.521.777.777,0,0,1-.232.585,1.143,1.143,0,0,1-.678.278v.413H183v-.4Z" transform="translate(-177.632 -60.664)" fill="#fff" fill-rule="evenodd"/></g><path d="M204.43,60.888a1.145,1.145,0,0,0-1,.527,2.522,2.522,0,0,0-.359,1.445q0,1.918,1.46,1.918a3,3,0,0,0,.855-.123,8.559,8.559,0,0,0,.832-.3v1.518a4.61,4.61,0,0,1-1.883.368,2.988,2.988,0,0,1-2.311-.872,3.6,3.6,0,0,1-.8-2.522,4.039,4.039,0,0,1,.387-1.813,2.784,2.784,0,0,1,1.119-1.2,3.381,3.381,0,0,1,1.72-.423,4.733,4.733,0,0,1,2.06.468l-.55,1.413a6.193,6.193,0,0,0-.737-.291A2.578,2.578,0,0,0,204.43,60.888Z" transform="translate(-122.493 -39.299)" fill="#2c3652"/><path d="M220.159,63.248a2.583,2.583,0,0,1,.441.036l.1.018-.159,1.677a2.615,2.615,0,0,0-.6-.055,1.148,1.148,0,0,0-.846.268,1.034,1.034,0,0,0-.264.763v2.531h-1.779V63.339h1.324l.278.823h.086a1.764,1.764,0,0,1,.619-.659A1.489,1.489,0,0,1,220.159,63.248Z" transform="translate(-132.125 -41.632)" fill="#2c3652"/><path d="M230.373,68.579a2.782,2.782,0,0,1-2-.682,2.586,2.586,0,0,1-.71-1.949,2.8,2.8,0,0,1,.66-2,2.918,2.918,0,0,1,3.68-.091,2.292,2.292,0,0,1,.637,1.745v.791h-3.18a.884.884,0,0,0,.314.677,1.249,1.249,0,0,0,.814.245,4,4,0,0,0,.86-.086,4.374,4.374,0,0,0,.855-.3V68.2a3.14,3.14,0,0,1-.864.3A5.982,5.982,0,0,1,230.373,68.579Zm-.1-4.122a.742.742,0,0,0-.527.2.924.924,0,0,0-.246.618h1.528a.878.878,0,0,0-.214-.6A.692.692,0,0,0,230.269,64.457Z" transform="translate(-138.587 -41.632)" fill="#2c3652"/><path d="M244.205,65.729a1.553,1.553,0,0,1-.964-.314,2.011,2.011,0,0,1-.637-.922,4.131,4.131,0,0,1-.223-1.422,3.336,3.336,0,0,1,.505-1.963,1.611,1.611,0,0,1,1.387-.709,1.578,1.578,0,0,1,.755.173,1.664,1.664,0,0,1,.6.582h.036a8.547,8.547,0,0,1-.086-1.209V58.568h1.792v7.071h-1.342l-.382-.65h-.068A1.507,1.507,0,0,1,244.205,65.729Zm.728-1.4a.659.659,0,0,0,.6-.268,1.6,1.6,0,0,0,.191-.827v-.141a1.786,1.786,0,0,0-.2-.968.687.687,0,0,0-.614-.291.606.606,0,0,0-.546.332,1.878,1.878,0,0,0-.191.936,1.742,1.742,0,0,0,.2.913A.622.622,0,0,0,244.933,64.325Z" transform="translate(-147.547 -38.783)" fill="#2c3652"/><path d="M260.006,65.405h-1.779V60.257h1.779Zm-1.824-6.43a.75.75,0,0,1,.223-.6,1.413,1.413,0,0,1,1.442,0,.744.744,0,0,1,.228.591q0,.782-.951.782T258.182,58.975Z" transform="translate(-157.166 -38.549)" fill="#2c3652"/><path d="M267.963,65.711a2.646,2.646,0,0,0,.86-.177v1.3a3.373,3.373,0,0,1-.687.218,3.717,3.717,0,0,1-.76.068,1.671,1.671,0,0,1-1.292-.436,1.972,1.972,0,0,1-.4-1.35V63.207h-.623v-.723l.791-.559.459-1.082h1.165v1.032h1.265v1.331h-1.265v2Q267.481,65.711,267.963,65.711Z" transform="translate(-161.356 -40.168)" fill="#2c3652"/><path d="M280.837,66.906a1.463,1.463,0,0,1-.564,1.25,2.664,2.664,0,0,1-1.619.423,6.79,6.79,0,0,1-1-.064,4.127,4.127,0,0,1-.864-.223V66.87a5.367,5.367,0,0,0,.9.3,3.858,3.858,0,0,0,.883.118q.578,0,.578-.264a.293.293,0,0,0-.164-.241,6.841,6.841,0,0,0-.937-.418,2.356,2.356,0,0,1-.992-.659,1.516,1.516,0,0,1-.282-.941,1.3,1.3,0,0,1,.555-1.118,2.652,2.652,0,0,1,1.569-.4,3.86,3.86,0,0,1,.955.114,5.51,5.51,0,0,1,.932.323l-.482,1.145a5.233,5.233,0,0,0-.751-.268,2.452,2.452,0,0,0-.646-.114q-.437,0-.437.214a.271.271,0,0,0,.15.227,9.088,9.088,0,0,0,.882.377,3.322,3.322,0,0,1,.805.436,1.272,1.272,0,0,1,.391.5A1.719,1.719,0,0,1,280.837,66.906Z" transform="translate(-168.489 -41.632)" fill="#2c3652"/><g transform="translate(189.788 65.717)"><path d="M485.069,189.341a8.366,8.366,0,0,1,8.366-8.366,1.394,1.394,0,0,0,1.048-2.314l-.163-.186a1.507,1.507,0,0,1,1.835-2.326l8.715,4.6a1.957,1.957,0,0,0,.914.227H547.33a11.738,11.738,0,0,1,11.738,11.738v9.23A11.738,11.738,0,0,1,547.33,213.68H496.807a11.738,11.738,0,0,1-11.738-11.738Z" transform="translate(-485.069 -175.962)" fill="#fff"/></g><path d="M504.255,213.5a5.4,5.4,0,0,1-1.92-.445v-1.509a6.677,6.677,0,0,0,1.146.45,4.016,4.016,0,0,0,1.087.177,1.305,1.305,0,0,0,.564-.091.328.328,0,0,0,.182-.314.314.314,0,0,0-.132-.254,1.938,1.938,0,0,0-.432-.236q-.3-.131-.814-.318a3.75,3.75,0,0,1-.932-.477,1.722,1.722,0,0,1-.519-.6,1.9,1.9,0,0,1-.159-.822,1.476,1.476,0,0,1,.482-1.172,2.555,2.555,0,0,1,1.447-.523v-.622h.942v.613a5.341,5.341,0,0,1,1.824.445l-.542,1.3a4.245,4.245,0,0,0-1.715-.427,1.06,1.06,0,0,0-.514.091.283.283,0,0,0-.146.259.332.332,0,0,0,.1.25,1.664,1.664,0,0,0,.373.218q.264.118.732.277a3.518,3.518,0,0,1,1.365.768,1.521,1.521,0,0,1,.414,1.1,1.661,1.661,0,0,1-.487,1.241,2.351,2.351,0,0,1-1.41.591v.877h-.942Z" transform="translate(-305.786 -128.983)" fill="#2c3652"/><path d="M519.034,210.1a2.009,2.009,0,0,1,1.033.268,1.805,1.805,0,0,1,.719.75,2.349,2.349,0,0,1,.259,1.123,2.159,2.159,0,0,1-.673,1.709,2.976,2.976,0,0,1-2.029.6,4.351,4.351,0,0,1-1.9-.359v-1.472a4.807,4.807,0,0,0,.892.3,3.835,3.835,0,0,0,.859.118,1.229,1.229,0,0,0,.769-.209.753.753,0,0,0,.268-.627.713.713,0,0,0-.273-.6,1.333,1.333,0,0,0-.828-.214,2.98,2.98,0,0,0-.914.159l-.66-.327.25-3.508H520.6v1.495h-2.265l-.082.877a3.725,3.725,0,0,1,.505-.073Q518.907,210.1,519.034,210.1Z" transform="translate(-314.378 -129.633)" fill="#2c3652"/><path d="M543.164,210.962a3.582,3.582,0,0,1-.824,2.549,3.747,3.747,0,0,1-4.813,0,4.309,4.309,0,0,1,0-5.085,3.767,3.767,0,0,1,4.822-.009A3.584,3.584,0,0,1,543.164,210.962Zm-4.576,0q0,1.927,1.342,1.927a1.148,1.148,0,0,0,1.01-.468,3.369,3.369,0,0,0,0-2.926,1.134,1.134,0,0,0-1-.477Q538.587,209.017,538.587,210.962Z" transform="translate(-326.708 -129.471)" fill="#2c3652"/><path d="M558.067,214.456H556.3v-6.644h3.93v1.441h-2.161v1.268h1.992v1.441h-1.992Z" transform="translate(-338.64 -129.633)" fill="#2c3652"/><path d="M570.9,214.456h-1.769v-6.644h3.93v1.441H570.9v1.268h1.993v1.441H570.9Z" transform="translate(-346.454 -129.633)" fill="#2c3652"/><path d="M505.516,243.421a1.612,1.612,0,0,1-1.356-.627H504.1q.059.582.058.706v1.882h-.977v-6.639h.79q.034.128.137.615h.05a1.532,1.532,0,0,1,1.373-.7,1.592,1.592,0,0,1,1.339.623,3.4,3.4,0,0,1-.008,3.507A1.606,1.606,0,0,1,505.516,243.421Zm-.237-3.963a1.022,1.022,0,0,0-.853.341,1.773,1.773,0,0,0-.267,1.088v.146a2.156,2.156,0,0,0,.267,1.217.992.992,0,0,0,.869.374.883.883,0,0,0,.782-.415,2.146,2.146,0,0,0,.274-1.184,2.046,2.046,0,0,0-.274-1.167A.9.9,0,0,0,505.278,239.458Z" transform="translate(-306.307 -148.412)" fill="#2c3652"/><path d="M520.4,241.033a2.5,2.5,0,0,1-.578,1.757,2.072,2.072,0,0,1-1.609.631,2.206,2.206,0,0,1-1.14-.291,1.919,1.919,0,0,1-.761-.835,2.841,2.841,0,0,1-.266-1.263,2.489,2.489,0,0,1,.574-1.745,2.082,2.082,0,0,1,1.618-.628,2.025,2.025,0,0,1,1.581.644A2.47,2.47,0,0,1,520.4,241.033Zm-3.348,0q0,1.591,1.177,1.591t1.165-1.591q0-1.575-1.173-1.575a1.006,1.006,0,0,0-.894.407A2.085,2.085,0,0,0,517.051,241.033Z" transform="translate(-314.137 -148.412)" fill="#2c3652"/><path d="M531.032,240.559h-.977v-6.465h.977Z" transform="translate(-322.666 -145.632)" fill="#2c3652"/><path d="M537.022,240.727h-.977v-4.595h.977Zm-1.036-5.813a.545.545,0,0,1,.142-.4.568.568,0,0,1,.412-.141.541.541,0,0,1,.4.141.541.541,0,0,1-.4.939.567.567,0,0,1-.412-.141A.542.542,0,0,1,535.986,234.914Z" transform="translate(-326.276 -145.8)" fill="#2c3652"/><path d="M543.644,243.421a2.025,2.025,0,0,1-1.589-.606,3.095,3.095,0,0,1,.025-3.532,2.112,2.112,0,0,1,1.642-.623,3.074,3.074,0,0,1,1.31.27l-.3.785a2.958,2.958,0,0,0-1.023-.241q-1.194,0-1.194,1.583a1.915,1.915,0,0,0,.3,1.164,1.038,1.038,0,0,0,.873.386,2.5,2.5,0,0,0,1.236-.324v.852a1.937,1.937,0,0,1-.562.22A3.338,3.338,0,0,1,543.644,243.421Z" transform="translate(-329.641 -148.412)" fill="#2c3652"/><path d="M553.881,240.727H552.9v-4.595h.977Zm-1.035-5.813a.545.545,0,0,1,.141-.4.568.568,0,0,1,.411-.141.541.541,0,0,1,.4.141.541.541,0,0,1-.4.939.566.566,0,0,1-.411-.141A.542.542,0,0,1,552.846,234.914Z" transform="translate(-336.539 -145.8)" fill="#2c3652"/><path d="M560.656,243.421a2.24,2.24,0,0,1-1.681-.623,2.386,2.386,0,0,1-.6-1.724,2.6,2.6,0,0,1,.561-1.77,1.941,1.941,0,0,1,1.543-.644,1.9,1.9,0,0,1,1.439.553,2.109,2.109,0,0,1,.528,1.52v.528H559.38a1.516,1.516,0,0,0,.361,1.03,1.266,1.266,0,0,0,.961.357,3.605,3.605,0,0,0,.757-.075,4.075,4.075,0,0,0,.757-.257v.793a3,3,0,0,1-.724.241A4.457,4.457,0,0,1,560.656,243.421Zm-.179-4.022a.989.989,0,0,0-.748.295,1.413,1.413,0,0,0-.333.86h2.088a1.264,1.264,0,0,0-.274-.86A.937.937,0,0,0,560.477,239.4Z" transform="translate(-339.904 -148.412)" fill="#2c3652"/><path d="M574.255,242.03a1.208,1.208,0,0,1-.491,1.035,2.362,2.362,0,0,1-1.406.357,3.327,3.327,0,0,1-1.477-.278V242.3a3.629,3.629,0,0,0,1.51.374q.9,0,.9-.544a.43.43,0,0,0-.1-.291,1.176,1.176,0,0,0-.329-.241,5.6,5.6,0,0,0-.636-.282,2.971,2.971,0,0,1-1.077-.615,1.141,1.141,0,0,1-.279-.8,1.043,1.043,0,0,1,.474-.914,2.261,2.261,0,0,1,1.3-.328,3.676,3.676,0,0,1,1.535.328l-.316.736a3.417,3.417,0,0,0-1.252-.308q-.773,0-.774.441a.444.444,0,0,0,.2.365,4.535,4.535,0,0,0,.882.411,4.02,4.02,0,0,1,.827.4,1.125,1.125,0,0,1,.507.993Z" transform="translate(-347.514 -148.412)" fill="#2c3652"/><path d="M589.33,236.632h-1.123v3.855h-.982v-3.855h-.757v-.457l.757-.3v-.3a1.663,1.663,0,0,1,.383-1.205,1.561,1.561,0,0,1,1.169-.395,3.126,3.126,0,0,1,1.015.171l-.258.739a2.26,2.26,0,0,0-.691-.116.566.566,0,0,0-.487.208,1.036,1.036,0,0,0-.149.615v.3h1.123Z" transform="translate(-357.007 -145.561)" fill="#2c3652"/><path d="M599.444,241.033a2.506,2.506,0,0,1-.578,1.757,2.072,2.072,0,0,1-1.61.631,2.2,2.2,0,0,1-1.139-.291,1.916,1.916,0,0,1-.761-.835,2.84,2.84,0,0,1-.267-1.263,2.489,2.489,0,0,1,.574-1.745,2.082,2.082,0,0,1,1.618-.628,2.025,2.025,0,0,1,1.581.644A2.47,2.47,0,0,1,599.444,241.033Zm-3.348,0q0,1.591,1.177,1.591t1.164-1.591q0-1.575-1.173-1.575a1.006,1.006,0,0,0-.894.407A2.085,2.085,0,0,0,596.1,241.033Z" transform="translate(-362.255 -148.412)" fill="#2c3652"/><path d="M611.433,238.66a2.346,2.346,0,0,1,.487.042l-.1.91a1.849,1.849,0,0,0-.432-.05,1.258,1.258,0,0,0-.953.382,1.385,1.385,0,0,0-.362.993v2.4H609.1v-4.595h.765l.129.81h.05a1.828,1.828,0,0,1,.595-.652A1.431,1.431,0,0,1,611.433,238.66Z" transform="translate(-370.784 -148.412)" fill="#2c3652"/><path d="M628.028,243.338h-.982V240.5a1.275,1.275,0,0,0-.2-.785.735.735,0,0,0-.624-.262.956.956,0,0,0-.832.37,2.161,2.161,0,0,0-.262,1.222v2.289h-.977v-4.595h.765l.137.6h.05a1.275,1.275,0,0,1,.553-.507,1.806,1.806,0,0,1,.8-.179,1.4,1.4,0,0,1,1.406.723h.066a1.4,1.4,0,0,1,.574-.532,1.823,1.823,0,0,1,.849-.191,1.539,1.539,0,0,1,1.2.416,1.833,1.833,0,0,1,.379,1.267v3h-.978V240.5a1.256,1.256,0,0,0-.2-.785.736.736,0,0,0-.624-.262.975.975,0,0,0-.836.357,1.832,1.832,0,0,0-.262,1.088Z" transform="translate(-379.946 -148.412)" fill="#2c3652"/><path d="M646.547,243.421a2.238,2.238,0,0,1-1.68-.623,2.383,2.383,0,0,1-.6-1.724,2.6,2.6,0,0,1,.562-1.77,1.94,1.94,0,0,1,1.543-.644,1.9,1.9,0,0,1,1.439.553,2.11,2.11,0,0,1,.528,1.52v.528H645.27a1.518,1.518,0,0,0,.362,1.03,1.264,1.264,0,0,0,.961.357,3.6,3.6,0,0,0,.757-.075,4.086,4.086,0,0,0,.757-.257v.793a3,3,0,0,1-.724.241A4.455,4.455,0,0,1,646.547,243.421Zm-.179-4.022a.99.99,0,0,0-.749.295,1.413,1.413,0,0,0-.333.86h2.088a1.263,1.263,0,0,0-.275-.86A.937.937,0,0,0,646.368,239.4Z" transform="translate(-392.189 -148.412)" fill="#2c3652"/><path d="M658.127,239.322H657.4l-.216-4.23h1.152Zm-.989,1.326a.565.565,0,0,1,.624-.628.6.6,0,0,1,.453.166.643.643,0,0,1,.158.461.664.664,0,0,1-.162.47.583.583,0,0,1-.449.17.626.626,0,0,1-.462-.166A.65.65,0,0,1,657.137,240.647Z" transform="translate(-400.026 -146.24)" fill="#2c3652"/><path d="M280.292,322.978l4.5,1.757L304,284.849l6.159.226.026,48.035,6.336-.013V275.083l-17.266.056Z" transform="translate(-170.625 -170.584)" fill="#484ff5" fill-rule="evenodd"/><path d="M360.448,421.545h.005c.089-.049,3.832-2.045,5.542-.338,1.21,1.208.961,3.992.941,4.184a.011.011,0,0,1-.013.011l-10.436-.013v-3.8Z" transform="translate(-217.009 -259.115)" fill="#fff" fill-rule="evenodd"/><path d="M360.448,421.545h.005c.089-.049,3.832-2.045,5.542-.338,1.21,1.208.961,3.992.941,4.184a.011.011,0,0,1-.013.011l-10.436-.013v-3.8Z" transform="translate(-217.009 -259.115)" fill="#ec5c8c" fill-rule="evenodd"/><path d="M273.881,389.476l0,0L277.4,391.3l-1.714,3.392-9.329-4.7c.07-.18,1.1-2.777,2.728-3.312C271.382,385.926,273.823,389.393,273.881,389.476Z" transform="translate(-162.143 -238.453)" fill="#ec5c8c"/><path d="M456.5,192.927a2.8,2.8,0,1,0,2.8-2.794A2.8,2.8,0,0,0,456.5,192.927Z" transform="translate(-277.887 -118.872)" fill="#d9ddfc" fill-rule="evenodd"/><path d="M349.046,116.024c0,10.193-6.86,17.65-17.064,17.65-2.717,0-9.983,6.759-12.306,8.086-5.723,3.268-5.868-1.346-6.022-7.858-.147-6.23-.147-16.882-.147-17.676,0-10.192,7.672-18.442,19.15-18.442C342.86,97.783,349.046,105.831,349.046,116.024Z" transform="translate(-190.844 -62.654)" fill="#02065a" fill-rule="evenodd"/><path d="M261.588,184.93a3.336,3.336,0,1,0,3.336-3.333A3.334,3.334,0,0,0,261.588,184.93Z" transform="translate(-159.239 -113.675)" fill="#d2d7fc" fill-rule="evenodd"/><path d="M326.632,102.68a21.178,21.178,0,0,1,8.126-1.544.013.013,0,0,1,0,.025c-.6.254-5.8,2.485-7.446,4.694-1.573,2.105.121,4.93-.685,4.93a8.94,8.94,0,0,1-4.128-1.2c-.348-.144-1.343-.461-1.437-.49a.01.01,0,0,0-.012,0,14.817,14.817,0,0,0-2.44,3.614c-.288.765-.952,2.706-1,2.845a.011.011,0,0,1-.012.008h-.747a.012.012,0,0,1-.013-.014,38.982,38.982,0,0,1,1.139-4.113,18.319,18.319,0,0,1,2.654-4.3A16.348,16.348,0,0,1,326.632,102.68Z" transform="translate(-192.875 -64.695)" fill="#2b2f86" fill-rule="evenodd"/><path d="M308.893,183.807c2.772,0,11.728.391,13.683.391s23.456,1.953,23.456,1.953l-.391,3.124s-17.2,1.562-21.11,1.562c-3.014,0-7.888,1.625-9.962,2.369a1.875,1.875,0,0,0-1.2,1.39c-.545,2.6-1.941,9.44-2.128,12.252-.391,5.858-.782,12.9-.782,12.9a29.362,29.362,0,0,1-8.6,1.366,32.343,32.343,0,0,1-8.754-1.307s2.5-9.055,2.889-13.35c.244-2.681.336-6.274.37-8.6a1.941,1.941,0,0,0-2.282-1.933c-1.919.333-4.535.773-5.8.931-2.77.346-18.041-7.185-18.041-7.185l2.868-5.046s12.4,5.187,14.108,5.85c1.734.671,6.43-5.764,14.64-5.764A52.139,52.139,0,0,0,308.893,183.807Z" transform="translate(-164.506 -115.021)" fill="#63d4c8" fill-rule="evenodd"/><path d="M311.834,135.214a2.445,2.445,0,0,0,2.5,2.635c.675,0,.995-.03,1.049-.035a.011.011,0,0,1,.012.007c.021.056.15.393.354.97a15.162,15.162,0,0,0,28.542.1c.161-.445.347-1.014.371-1.09a.011.011,0,0,1,.012-.008c.1.006.986.059,1.742.059a2.417,2.417,0,0,0,2.41-2.209,2.448,2.448,0,0,0-2.491-2.623H345.2a.011.011,0,0,1-.012-.012c0-.062-.006-.357-.013-.517a8.677,8.677,0,0,0-.33-1.965,12.706,12.706,0,0,0-2.69-5.362.011.011,0,0,0-.012,0c-.335.121-12.143,4.37-18.027,5.031-5.9.663-8.6.193-8.787.158a.011.011,0,0,0-.013.009,13.574,13.574,0,0,0-.4,2.1c-.014.251-.015.493-.015.55a.012.012,0,0,1-.013.012h-.643A2.417,2.417,0,0,0,311.834,135.214Z" transform="translate(-189.82 -79.319)" fill="#d9ddfc" fill-rule="evenodd"/><path d="M346.506,183.968a.013.013,0,0,0-.015.012c-.013.282-.408,3,.484,4.551.953,1.655,2.122,2.74,4.033,2.769,1.883.029,3.083-.971,4.08-2.567.984-1.574.57-4.437.54-4.721a.011.011,0,0,0-.015-.011,22.358,22.358,0,0,1-4.24.682A32.585,32.585,0,0,1,346.506,183.968Z" transform="translate(-210.863 -115.118)" fill="#d9ddfc" fill-rule="evenodd"/><path d="M355.79,184a.011.011,0,0,1,.015.011s-.895,3.526-4.255,3.433c-4.757-.133-4.867-3.476-4.867-3.476a32.578,32.578,0,0,0,4.867.714A22.355,22.355,0,0,0,355.79,184Z" transform="translate(-211.04 -115.119)" fill="#c9d0fb"/><path d="M374.2,149.213a1,1,0,0,0,1-1v-1.968a1,1,0,0,0-2,0v1.968A1,1,0,0,0,374.2,149.213Z" transform="translate(-227.178 -91.546)" fill="#02065a" fill-rule="evenodd"/><path d="M339.12,149.213a1,1,0,0,0,1-1v-1.968a1,1,0,0,0-2,0v1.968A1,1,0,0,0,339.12,149.213Z" transform="translate(-205.827 -91.546)" fill="#02065a" fill-rule="evenodd"/><path d="M378.027,145.627v1.114a.013.013,0,0,0,.02.011c.083-.067.4-.323.58-.506a3.035,3.035,0,0,0,.444-.743c.154-.276.242-.781.021-.524-.143.166-.328.369-.551.592a.458.458,0,0,1-.5.044A.013.013,0,0,0,378.027,145.627Z" transform="translate(-230.12 -91.341)" fill="#02065a" fill-rule="evenodd"/><path d="M336.91,145.627v1.114a.012.012,0,0,1-.02.011c-.083-.067-.4-.323-.58-.506a3.037,3.037,0,0,1-.444-.743c-.154-.276-.242-.781-.02-.524.143.166.328.369.551.592a.458.458,0,0,0,.5.044A.013.013,0,0,1,336.91,145.627Z" transform="translate(-204.361 -91.341)" fill="#02065a" fill-rule="evenodd"/><path d="M355.511,169.81A3.444,3.444,0,0,1,352,171.782c-2.6,0-2.919-1.6-3.534-1.912-.57-.291-.792.226.083,1.256A4.772,4.772,0,0,0,352,172.443c2.777,0,4.21-1.795,4.21-2.362S355.783,169.377,355.511,169.81Z" transform="translate(-211.819 -106.345)" fill="#02065a" fill-rule="evenodd"/><path d="M426.049,120.617a28.477,28.477,0,0,0-.219-6.706c-.384-2.964-1.14-3.74-1.6-4.373a5.533,5.533,0,0,0,.2-2.785,21.269,21.269,0,0,0-1.9-6.595,21.428,21.428,0,0,1-5.867,3.255c-2.071-.939-5.63-1.111-8.052-1.111a16.367,16.367,0,0,0-7.985,2.066,16.047,16.047,0,0,0-6.493,6.232c-1.286,2.339-2.445,7.453-1.729,10.413Z" transform="translate(-238.744 -64.1)" fill="#2025b9" fill-rule="evenodd"/><path d="M404.745,110.529c3.309-1.6,8.026-.885,8.026-.885s-5.636,1.7-7.355,4c-1.542,2.064.119,4.833-.671,4.833a14.55,14.55,0,0,1-4.939-1.221,4.148,4.148,0,0,0-1.037-.185,7.879,7.879,0,0,0-1.506,1.875c-.211.33-1.284,3.157-1.284,3.157h-.494a38.872,38.872,0,0,1,1.087-3.774,10.948,10.948,0,0,1,1.959-3.289A17.937,17.937,0,0,1,404.745,110.529Z" transform="translate(-240.747 -69.778)" fill="#4f54e5" fill-rule="evenodd"/><path d="M425,142.487a2.369,2.369,0,0,1-2.371,2.368c-.8,0-1.127-.036-1.127-.036s-.131.337-.351.959a14.86,14.86,0,0,1-27.974.1c-.169-.468-.367-1.076-.367-1.076s-.93.058-1.716.058a2.368,2.368,0,1,1,0-4.736H392.3s.005-.342.013-.518a8.52,8.52,0,0,1,.324-1.925,12.437,12.437,0,0,1,2.641-5.261s6.926,2.031,11.585,2.059c4.391.026,11.376-2.4,11.376-2.4a14.963,14.963,0,0,1,3.189,5.209,12.719,12.719,0,0,1,.432,1.611c.053.277.128,1.223.128,1.223h.643A2.369,2.369,0,0,1,425,142.487Z" transform="translate(-236.631 -83.53)" fill="#d9ddfc" fill-rule="evenodd"/><path d="M415.507,154.634a1.007,1.007,0,0,1-1-1v-1.974a1,1,0,0,1,2.008,0v1.974A1.006,1.006,0,0,1,415.507,154.634Z" transform="translate(-252.325 -94.839)" fill="#2025b9" fill-rule="evenodd"/><path d="M450.684,154.634a1.007,1.007,0,0,1-1-1v-1.974a1,1,0,0,1,2.008,0v1.974A1.007,1.007,0,0,1,450.684,154.634Z" transform="translate(-273.738 -94.839)" fill="#2025b9" fill-rule="evenodd"/><path d="M431.043,336.053l-6.612-.029-.049-47.063h-5.815l-.013,47.092H412.33V279.168h17.914Z" transform="translate(-251.002 -173.071)" fill="#3232c8" fill-rule="evenodd"/><path d="M413.023,421.722l-3.885-.03s-3.737-2.026-5.433-.332c-1.228,1.227-.922,4.112-.922,4.112h10.24Z" transform="translate(-245.17 -259.218)" fill="#02065a" fill-rule="evenodd"/><path d="M442.512,421.722l3.885-.03s3.737-2.026,5.433-.332c1.228,1.227.922,4.112.922,4.112h-10.24Z" transform="translate(-269.375 -259.218)" fill="#02065a" fill-rule="evenodd"/><path d="M426.639,174.825a3.11,3.11,0,0,0,3.172,1.781c2.352,0,2.636-1.443,3.191-1.726.515-.263.715.2-.075,1.133a4.308,4.308,0,0,1-3.116,1.19c-2.508,0-3.8-1.621-3.8-2.134S426.394,174.435,426.639,174.825Z" transform="translate(-259.329 -109.413)" fill="#2025b9" fill-rule="evenodd"/><g transform="translate(91.564 59.726)"><path d="M242.415,181.232l-6.444-1.5a2.515,2.515,0,0,1-1.881-3.021l3.291-14.117a2.518,2.518,0,0,1,3.024-1.88l6.444,1.5a2.516,2.516,0,0,1,1.882,3.021l-3.292,14.117A2.518,2.518,0,0,1,242.415,181.232Z" transform="translate(-234.024 -160.649)" fill="#fff" fill-rule="evenodd"/></g><path d="M246.822,181.82l-8.757-2.038,3.1-13.312,8.757,2.038Z" transform="translate(-144.92 -104.467)" fill="#eaedfc" fill-rule="evenodd"/><rect width="2.396" height="49.723" rx="1.198" transform="translate(142.407 107.955)" fill="#5e62f6"/><rect width="2.396" height="49.723" rx="1.198" transform="translate(175.414 107.955)" fill="#514ce9"/><rect width="9.048" height="1.251" rx="0.626" transform="matrix(0.892, 0.451, -0.452, 0.892, 105.707, 149.968)" fill="#ed86a8"/><rect width="9.05" height="1.251" rx="0.626" transform="translate(140.278 164.327)" fill="#ed86a8"/><rect width="9.05" height="1.251" rx="0.626" transform="translate(158.112 164.061)" fill="#242883"/><rect width="9.05" height="1.251" rx="0.626" transform="translate(173.817 164.061)" fill="#242883"/><path d="M402.928,295.22a2.47,2.47,0,1,1-2.47-2.468A2.469,2.469,0,0,1,402.928,295.22Z" transform="translate(-242.271 -181.34)" fill="#d9ddfc" fill-rule="evenodd"/><path d="M398.734,213.88c0-10.292,0-18.637,10.263-18.637h8.5c3.794,0,6.043,1.293,7.646,3.27,2.824,3.483,4.888,12.6,2.663,14.97-1.182,1.262-3.8,1.326-6.348,1l.424,13.808a84.07,84.07,0,0,1-8.929.715,84.1,84.1,0,0,1-8.884-.771L404.7,207.9h-.55s-.232,3.55-.232,5.438c0,3.153-.694,20.445-.717,21.974l-4.468,0V213.88Z" transform="translate(-242.725 -121.982)" fill="#f7c645"/><path d="M447.4,214.488a1.6,1.6,0,0,0,.865-1.3v-1.731s4.758,0,4.758-.865-1.125-3.021-3.46-5.627c-1.936-2.16-2.6-2.164-2.6-2.164a10.346,10.346,0,0,0,1.3-3.03v-2.164a7.378,7.378,0,0,1,6.056,3.9c1.826,3.289,3.028,5.824,3.028,10.82,0,1.669-1.643,2.8-3.46,3.03A17.152,17.152,0,0,1,447.4,214.488Z" transform="translate(-272.089 -123.422)" fill="#ffd975" fill-rule="evenodd"/><g transform="translate(167.582 82.517)"><path d="M435.771,219.667c0,.1-.622,4.655-.849,6.31a.686.686,0,0,1-.682.592h-4.492a.685.685,0,0,1-.683-.6c-.2-1.668-.752-6.225-.752-6.3a.72.72,0,0,1,.658-.767h6.146A.717.717,0,0,1,435.771,219.667Z" transform="translate(-428.314 -218.9)" fill="#fff" fill-rule="evenodd"/></g><rect width="1.597" height="2.393" rx="0.799" transform="matrix(0.994, -0.106, 0.106, 0.994, 168.493, 83.396)" fill="#e9e8fd"/><path d="M441.941,231.115a2.928,2.928,0,1,1-2.928-2.925A2.926,2.926,0,0,1,441.941,231.115Z" transform="translate(-265.462 -142.038)" fill="#d9ddfc" fill-rule="evenodd"/><path d="M423.273,190.133a.012.012,0,0,0-.015.012c-.014.282-.409,3,.484,4.551.953,1.655,2.122,2.74,4.033,2.769,1.883.029,3.083-.971,4.08-2.567.984-1.574.57-4.437.54-4.721a.011.011,0,0,0-.015-.011,22.391,22.391,0,0,1-4.24.681A32.585,32.585,0,0,1,423.273,190.133Z" transform="translate(-257.594 -118.871)" fill="#d9ddfc" fill-rule="evenodd"/><path d="M432.557,190.165a.011.011,0,0,1,.015.011s-.895,3.526-4.255,3.433c-4.757-.133-4.867-3.476-4.867-3.476a32.584,32.584,0,0,0,4.867.714A22.4,22.4,0,0,0,432.557,190.165Z" transform="translate(-257.771 -118.872)" fill="#c9d0fb"/><path d="M274.824,243.126c-.627.7-2.7,3.13-2.7,4.635,0,3,.386,5.57,1.653,6.708h3.375c1.267-1.138,1.653-3.713,1.653-6.708,0-1.487-2.06-3.92-2.7-4.631.874-.087,1.216-.226,1.216-.538,0-.386-.666-.5-1.839-.5s-1.709.117-1.709.5C273.781,242.9,273.976,243.035,274.824,243.126Z" transform="translate(-165.655 -150.502)" fill="#d3d8f4"/><path d="M278.66,243.283c.712,0,1.29-.077,1.29-.173s-.578-.174-1.29-.174-1.29.078-1.29.174S277.948,243.283,278.66,243.283Z" transform="translate(-168.846 -151.015)" fill="#4da680"/><path d="M281.366,239.31a3.274,3.274,0,0,1,.078-1.652c.277-.915,3.258-.95,3.258-.95v.446s-2.536,0-2.8.854a1.864,1.864,0,0,0-.056,1.279" transform="translate(-171.237 -147.224)" fill="#4da680"/><path d="M291.553,233.925a1.2,1.2,0,1,0-1.2-1.2A1.2,1.2,0,0,0,291.553,233.925Z" transform="translate(-176.751 -144.067)" fill="#ec5c8c"/><path d="M292.372,237.7a1.2,1.2,0,1,0-1.2-1.2A1.2,1.2,0,0,0,292.372,237.7Z" transform="translate(-177.249 -146.367)" fill="#ec5c8c"/><path d="M289.817,240.13a1.2,1.2,0,1,0-1.2-1.2A1.2,1.2,0,0,0,289.817,240.13Z" transform="translate(-175.693 -147.845)" fill="#ec5c8c"/><path d="M285.625,238.845a1.2,1.2,0,1,0-1.2-1.2A1.2,1.2,0,0,0,285.625,238.845Z" transform="translate(-173.142 -147.062)" fill="#ec5c8c"/><path d="M284.53,235.31a1.2,1.2,0,1,0-1.2-1.2A1.2,1.2,0,0,0,284.53,235.31Z" transform="translate(-172.476 -144.91)" fill="#ec5c8c"/><path d="M287.162,232.584a1.2,1.2,0,1,0-1.2-1.2A1.2,1.2,0,0,0,287.162,232.584Z" transform="translate(-174.078 -143.251)" fill="#ec5c8c"/><path d="M288.74,236.975a.9.9,0,1,0-.9-.9A.9.9,0,0,0,288.74,236.975Z" transform="translate(-175.222 -146.293)" fill="#e1e5fd"/><path d="M285.421,237.2a1.412,1.412,0,0,1-.576.091c-.329-.061-.831-.421-.744-.711s1.272.29,1.272.29a.7.7,0,0,0,.048.329Z" transform="translate(-172.938 -147.095)" fill="#ee7ba3"/><path d="M292.721,236.011a1.347,1.347,0,0,1,.554-.178c.333.009.887.282.848.585s-1.3-.086-1.3-.086a.65.65,0,0,0-.035-.169A.729.729,0,0,0,292.721,236.011Z" transform="translate(-178.191 -146.691)" fill="#ee7ba3"/><path d="M292.352,238.559a1.39,1.39,0,0,1,.476.334c.194.273.251.854-.018,1.005s-.653-1.067-.653-1.067a.757.757,0,0,0,.113-.126A.69.69,0,0,0,292.352,238.559Z" transform="translate(-177.848 -148.35)" fill="#ee7ba3"/><path d="M287.7,240.07a2.765,2.765,0,0,1-.455.555c-.272.2-.852.252-1-.017s1.022-.664,1.022-.664a.919.919,0,0,0,.238.1A1.085,1.085,0,0,0,287.7,240.07Z" transform="translate(-174.238 -149.194)" fill="#ee7ba3"/><path d="M290.4,232.717a1.141,1.141,0,0,0,.19-.7c-.048-.329-.229-.772-.528-.7-.165.039.009.451.056.8a1.18,1.18,0,0,1-.047.533.712.712,0,0,1,.169.018A.461.461,0,0,1,290.4,232.717Z" transform="translate(-176.528 -143.94)" fill="#ee7ba3"/><path d="M292.679,233.994a1.071,1.071,0,0,0-.39.061,1.267,1.267,0,0,0-.381.225l-.139-.117a1.544,1.544,0,0,0,.229-.447,1.806,1.806,0,0,0,.039-.251s.074-.187.437.126S292.679,233.994,292.679,233.994Z" transform="translate(-177.612 -145.216)" fill="#ee7ba3"/><path d="M278.8,260.187a4.5,4.5,0,0,1-5.034,0,10.221,10.221,0,0,1-.233-1.677c-.059-.952-.048-1.777-.048-1.777a5.7,5.7,0,0,0,2.833.861,5.222,5.222,0,0,0,2.751-.861s.028.73-.048,1.82A9.373,9.373,0,0,1,278.8,260.187Z" transform="translate(-166.484 -159.414)" fill="#e5e9fd"/><path d="M279.826,235.494v-5.068h.658v5.068" transform="translate(-170.341 -143.4)" fill="#4da680"/><path d="M281.512,224.308a1.457,1.457,0,1,0-1.454-1.457A1.455,1.455,0,0,0,281.512,224.308Z" transform="translate(-170.483 -137.901)" fill="#ec5c8c"/><path d="M283.812,228.408a1.457,1.457,0,1,0-1.454-1.457A1.455,1.455,0,0,0,283.812,228.408Z" transform="translate(-171.883 -140.397)" fill="#ec5c8c"/><path d="M281.7,232.142a1.457,1.457,0,1,0-1.454-1.457A1.455,1.455,0,0,0,281.7,232.142Z" transform="translate(-170.597 -142.671)" fill="#ec5c8c"/><path d="M276.369,232.142a1.457,1.457,0,1,0-1.454-1.457A1.455,1.455,0,0,0,276.369,232.142Z" transform="translate(-167.352 -142.671)" fill="#ec5c8c"/><path d="M273.848,228.408a1.457,1.457,0,1,0-1.454-1.457A1.455,1.455,0,0,0,273.848,228.408Z" transform="translate(-165.817 -140.397)" fill="#ec5c8c"/><path d="M275.938,224.308a1.457,1.457,0,1,0-1.454-1.457A1.455,1.455,0,0,0,275.938,224.308Z" transform="translate(-167.089 -137.901)" fill="#ec5c8c"/><path d="M279.29,229.031a1.093,1.093,0,1,0-1.09-1.092A1.091,1.091,0,0,0,279.29,229.031Z" transform="translate(-169.351 -141.22)" fill="#e1e5fd"/><path d="M275.473,230.823a1.668,1.668,0,0,1-.636.308c-.4.043-1.116-.191-1.116-.564s1.584-.113,1.584-.113a1.093,1.093,0,0,0,.069.195A.62.62,0,0,0,275.473,230.823Z" transform="translate(-166.625 -143.363)" fill="#ee7ba3"/><path d="M283.575,226.658a1.631,1.631,0,0,1,.58-.4c.39-.108,1.134.013,1.19.382S283.8,227,283.8,227a.68.68,0,0,0-.1-.186A.658.658,0,0,0,283.575,226.658Z" transform="translate(-172.624 -140.837)" fill="#ee7ba3"/><path d="M284.1,229.993a1.652,1.652,0,0,1,.675.221c.32.247.593.906.333,1.175s-1.138-1.01-1.138-1.01a1.317,1.317,0,0,0,.086-.187A.759.759,0,0,0,284.1,229.993Z" transform="translate(-172.866 -143.136)" fill="#ee7ba3"/><path d="M279.4,232.93a3.264,3.264,0,0,1-.333.806c-.247.321-.9.594-1.173.334s.956-1.136.956-1.136a1.085,1.085,0,0,0,.311.031A1.155,1.155,0,0,0,279.4,232.93Z" transform="translate(-169.144 -144.924)" fill="#ee7ba3"/><path d="M279.655,223.914a1.392,1.392,0,0,0-.026-.88c-.173-.369-.541-.815-.861-.624-.173.1.169.52.35.91a1.472,1.472,0,0,1,.134.637,1.241,1.241,0,0,1,.2-.043A.62.62,0,0,1,279.655,223.914Z" transform="translate(-169.668 -138.492)" fill="#ee7ba3"/><path d="M283.121,224.467a1.337,1.337,0,0,0-.428.212,1.532,1.532,0,0,0-.363.4l-.2-.087a1.856,1.856,0,0,0,.108-.6c-.022-.2-.043-.308-.043-.308s.022-.243.55-.009S283.121,224.467,283.121,224.467Z" transform="translate(-171.741 -139.47)" fill="#ee7ba3"/><path d="M538.983,87.283a3.367,3.367,0,1,1-3.367-3.362A3.364,3.364,0,0,1,538.983,87.283Z" transform="translate(-324.001 -54.216)" fill="none" stroke="#d1f7f4" stroke-width="10"/><path d="M375.706,40.827a3.367,3.367,0,1,1-3.367-3.362A3.364,3.364,0,0,1,375.706,40.827Z" transform="translate(-224.607 -25.937)" fill="none" stroke="#fdf0c6" stroke-width="10"/><path d="M96.775,172.67a3.367,3.367,0,1,1-3.367-3.362A3.365,3.365,0,0,1,96.775,172.67Z" transform="translate(-54.811 -106.195)" fill="none" stroke="#f8d4e1" stroke-width="10"/><g transform="translate(43.821 96.6)"><g transform="translate(0 0.824)"><path d="M119.825,272.65A7.825,7.825,0,1,0,112,264.825,7.825,7.825,0,0,0,119.825,272.65Z" transform="translate(-112 -257)" fill="none" stroke="#fff" stroke-width="4"/></g><g opacity="0.3"><g opacity="0.3"><path d="M123.738,268.875a3.43,3.43,0,0,0-2.27.815,2.516,2.516,0,0,1-3.285,0,3.569,3.569,0,0,0-4.54,0,2.412,2.412,0,0,1-1.643.61v1.069a3.435,3.435,0,0,0,2.27-.815,2.516,2.516,0,0,1,3.285,0,3.569,3.569,0,0,0,4.54,0,2.515,2.515,0,0,1,3.285,0,3.437,3.437,0,0,0,2.27.815V270.3a2.407,2.407,0,0,1-1.642-.61,3.436,3.436,0,0,0-2.27-.815Zm2.27-2.564a3.536,3.536,0,0,0-4.54,0,2.493,2.493,0,0,1-3.285,0,3.536,3.536,0,0,0-4.54,0,2.4,2.4,0,0,1-1.643.618v1.082a3.409,3.409,0,0,0,2.27-.825,2.493,2.493,0,0,1,3.285,0,3.536,3.536,0,0,0,4.54,0,2.492,2.492,0,0,1,3.285,0,3.409,3.409,0,0,0,2.27.825v-1.082A2.392,2.392,0,0,1,126.008,266.31Zm0-3.812a3.535,3.535,0,0,0-4.54,0,2.493,2.493,0,0,1-3.285,0,3.535,3.535,0,0,0-4.54,0,2.4,2.4,0,0,1-1.643.618V264.2a3.411,3.411,0,0,0,2.27-.825,2.493,2.493,0,0,1,3.285,0,3.536,3.536,0,0,0,4.54,0,2.492,2.492,0,0,1,3.285,0,3.411,3.411,0,0,0,2.27.825v-1.081A2.392,2.392,0,0,1,126.008,262.5Zm0-3.4a3.569,3.569,0,0,0-4.54,0,2.516,2.516,0,0,1-3.285,0,3.569,3.569,0,0,0-4.54,0,2.412,2.412,0,0,1-1.643.61v1.069a3.435,3.435,0,0,0,2.27-.815,2.517,2.517,0,0,1,3.285,0,3.569,3.569,0,0,0,4.54,0,2.515,2.515,0,0,1,3.285,0,3.437,3.437,0,0,0,2.27.815V259.71a2.407,2.407,0,0,1-1.642-.61Zm-2.27-4.2a3.432,3.432,0,0,0-2.27.815,2.516,2.516,0,0,1-3.285,0,3.569,3.569,0,0,0-4.54,0,2.412,2.412,0,0,1-1.643.61v1.069a3.433,3.433,0,0,0,2.27-.815,2.516,2.516,0,0,1,3.285,0,3.568,3.568,0,0,0,4.54,0,2.515,2.515,0,0,1,3.285,0,3.433,3.433,0,0,0,2.27.815V256.32a2.407,2.407,0,0,1-1.642-.61,3.438,3.438,0,0,0-2.27-.815Z" transform="translate(-112 -254.895)" fill-rule="evenodd"/></g></g><path d="M124.676,271.826a1.909,1.909,0,0,1-.58,1.491,2.363,2.363,0,0,1-1.646.526h-.445v1.91h-1.584v-5.759h2.029a2.512,2.512,0,0,1,1.668.477A1.685,1.685,0,0,1,124.676,271.826Zm-2.671.748h.289a.8.8,0,0,0,.567-.2.706.706,0,0,0,.21-.543q0-.583-.657-.583h-.409Zm4.974,2.911a4.846,4.846,0,0,1-1.693-.386v-1.308a5.884,5.884,0,0,0,1.011.388,3.553,3.553,0,0,0,.958.155,1.161,1.161,0,0,0,.5-.081.28.28,0,0,0,.158-.27.271.271,0,0,0-.115-.221,1.758,1.758,0,0,0-.381-.205q-.356-.148-.72-.276a3.275,3.275,0,0,1-.822-.416,1.459,1.459,0,0,1-.455-.516,1.585,1.585,0,0,1-.142-.711,1.269,1.269,0,0,1,.425-1.016,2.275,2.275,0,0,1,1.275-.453v-.54h.83v.531a4.778,4.778,0,0,1,1.608.386l-.477,1.122a3.8,3.8,0,0,0-1.512-.37.953.953,0,0,0-.452.077.25.25,0,0,0-.1.1.241.241,0,0,0-.032.131.277.277,0,0,0,.094.215,1.338,1.338,0,0,0,.326.189q.233.1.646.242a3.133,3.133,0,0,1,1.2.664,1.312,1.312,0,0,1,.365.959,1.431,1.431,0,0,1-.427,1.076,2.1,2.1,0,0,1-1.245.512v.76h-.83v-.736Z" transform="translate(-117.126 -263.866)" fill="#fff" fill-rule="evenodd"/></g><g transform="translate(226.931 38.549)"><g transform="translate(0 0.968)"><path d="M589.195,127.389A9.195,9.195,0,1,0,580,118.195,9.194,9.194,0,0,0,589.195,127.389Z" transform="translate(-580 -109)" fill="none" stroke="#fff" stroke-width="4"/></g><g opacity="0.3"><g opacity="0.3"><path d="M593.792,122.952a4.032,4.032,0,0,0-2.667.957,2.956,2.956,0,0,1-3.861,0,4.194,4.194,0,0,0-5.334,0,2.833,2.833,0,0,1-1.93.718v1.256a4.032,4.032,0,0,0,2.667-.958,2.956,2.956,0,0,1,3.86,0,4.193,4.193,0,0,0,5.335,0,2.955,2.955,0,0,1,3.86,0,4.036,4.036,0,0,0,2.667.958v-1.257a2.83,2.83,0,0,1-1.93-.718,4.038,4.038,0,0,0-2.667-.957Zm2.667-3.013a4.155,4.155,0,0,0-5.334,0,2.929,2.929,0,0,1-3.861,0,4.155,4.155,0,0,0-5.334,0,2.815,2.815,0,0,1-1.93.726v1.271a4.007,4.007,0,0,0,2.667-.969,2.928,2.928,0,0,1,3.86,0,4.155,4.155,0,0,0,5.335,0,2.927,2.927,0,0,1,3.86,0,4.008,4.008,0,0,0,2.667.969v-1.271A2.811,2.811,0,0,1,596.459,119.939Zm0-4.48a4.155,4.155,0,0,0-5.334,0,2.93,2.93,0,0,1-3.861,0,4.155,4.155,0,0,0-5.334,0,2.814,2.814,0,0,1-1.93.726v1.271a4,4,0,0,0,2.667-.969,2.93,2.93,0,0,1,3.86,0,4.155,4.155,0,0,0,5.335,0,2.93,2.93,0,0,1,3.86,0,4.006,4.006,0,0,0,2.667.969v-1.271A2.813,2.813,0,0,1,596.459,115.46Zm0-3.994a4.193,4.193,0,0,0-5.334,0,2.956,2.956,0,0,1-3.861,0,4.193,4.193,0,0,0-5.334,0,2.835,2.835,0,0,1-1.93.717v1.256a4.032,4.032,0,0,0,2.667-.958,2.956,2.956,0,0,1,3.86,0,4.195,4.195,0,0,0,5.335,0,2.954,2.954,0,0,1,3.86,0,4.038,4.038,0,0,0,2.667.957v-1.256a2.83,2.83,0,0,1-1.93-.717Zm-2.667-4.94a4.034,4.034,0,0,0-2.667.958,2.957,2.957,0,0,1-3.861,0,4.193,4.193,0,0,0-5.334,0,2.833,2.833,0,0,1-1.93.717v1.257a4.034,4.034,0,0,0,2.667-.958,2.956,2.956,0,0,1,3.86,0,4.193,4.193,0,0,0,5.335,0,2.955,2.955,0,0,1,3.86,0,4.036,4.036,0,0,0,2.667.958V108.2a2.83,2.83,0,0,1-1.93-.717,4.039,4.039,0,0,0-2.667-.958Z" transform="translate(-580 -106.526)" fill-rule="evenodd"/></g></g><path d="M594.894,126.42a2.241,2.241,0,0,1-.681,1.751,2.776,2.776,0,0,1-1.934.619h-.523v2.244H589.9v-6.766h2.384a2.95,2.95,0,0,1,1.96.56A1.981,1.981,0,0,1,594.894,126.42Zm-3.138.88h.34a.936.936,0,0,0,.666-.232.83.83,0,0,0,.247-.639q0-.685-.772-.685h-.48Zm5.845,3.42a5.689,5.689,0,0,1-1.988-.453v-1.537a6.857,6.857,0,0,0,1.187.456,4.166,4.166,0,0,0,1.126.183,1.367,1.367,0,0,0,.587-.095.329.329,0,0,0,.186-.317.32.32,0,0,0-.135-.26,2.079,2.079,0,0,0-.448-.241q-.418-.174-.845-.324a3.837,3.837,0,0,1-.966-.488,1.712,1.712,0,0,1-.535-.606,1.858,1.858,0,0,1-.168-.836,1.492,1.492,0,0,1,.5-1.194,2.673,2.673,0,0,1,1.5-.532v-.634h.975v.625a5.608,5.608,0,0,1,1.889.453l-.561,1.319a4.462,4.462,0,0,0-1.776-.435,1.117,1.117,0,0,0-.53.09.292.292,0,0,0-.115.111.286.286,0,0,0-.038.154.325.325,0,0,0,.111.253,1.559,1.559,0,0,0,.384.222q.273.123.759.284a3.681,3.681,0,0,1,1.414.78,1.541,1.541,0,0,1,.428,1.127,1.682,1.682,0,0,1-.5,1.264,2.468,2.468,0,0,1-1.463.6v.893H597.6v-.865Z" transform="translate(-586.024 -117.067)" fill="#fff" fill-rule="evenodd"/></g><g transform="translate(208.933 112.395)"><g transform="translate(0 0.68)"><path d="M540.456,309.912A6.456,6.456,0,1,0,534,303.456,6.456,6.456,0,0,0,540.456,309.912Z" transform="translate(-534 -297)" fill="none" stroke="#fff" stroke-width="4"/></g><g opacity="0.3"><g opacity="0.3"><path d="M543.684,306.8a2.83,2.83,0,0,0-1.873.673,2.076,2.076,0,0,1-2.71,0,2.944,2.944,0,0,0-3.746,0,1.989,1.989,0,0,1-1.355.5v.882a2.833,2.833,0,0,0,1.873-.672,2.076,2.076,0,0,1,2.711,0,2.944,2.944,0,0,0,3.745,0,2.075,2.075,0,0,1,2.71,0,2.836,2.836,0,0,0,1.873.673v-.883a1.986,1.986,0,0,1-1.355-.5,2.835,2.835,0,0,0-1.873-.672Zm1.873-2.116a2.918,2.918,0,0,0-3.746,0,2.056,2.056,0,0,1-2.71,0,2.918,2.918,0,0,0-3.746,0,1.975,1.975,0,0,1-1.355.51v.893a2.81,2.81,0,0,0,1.873-.681,2.057,2.057,0,0,1,2.711,0,2.916,2.916,0,0,0,3.745,0,2.056,2.056,0,0,1,2.71,0,2.813,2.813,0,0,0,1.873.681v-.893A1.974,1.974,0,0,1,545.557,304.681Zm0-3.145a2.917,2.917,0,0,0-3.746,0,2.056,2.056,0,0,1-2.71,0,2.917,2.917,0,0,0-3.746,0,1.975,1.975,0,0,1-1.355.51v.892a2.81,2.81,0,0,0,1.873-.68,2.058,2.058,0,0,1,2.711,0,2.918,2.918,0,0,0,3.745,0,2.057,2.057,0,0,1,2.71,0,2.813,2.813,0,0,0,1.873.68v-.892A1.974,1.974,0,0,1,545.557,301.535Zm0-2.8a2.944,2.944,0,0,0-3.746,0,2.075,2.075,0,0,1-2.71,0,2.944,2.944,0,0,0-3.746,0,1.991,1.991,0,0,1-1.355.5v.882a2.831,2.831,0,0,0,1.873-.673,2.077,2.077,0,0,1,2.711,0,2.945,2.945,0,0,0,3.745,0,2.075,2.075,0,0,1,2.71,0,2.836,2.836,0,0,0,1.873.672v-.882a1.986,1.986,0,0,1-1.355-.5Zm-1.873-3.468a2.835,2.835,0,0,0-1.873.672,2.075,2.075,0,0,1-2.71,0,2.944,2.944,0,0,0-3.746,0,1.991,1.991,0,0,1-1.355.5v.882a2.831,2.831,0,0,0,1.873-.673,2.076,2.076,0,0,1,2.711,0,2.944,2.944,0,0,0,3.745,0,2.075,2.075,0,0,1,2.71,0,2.834,2.834,0,0,0,1.873.673v-.882a1.988,1.988,0,0,1-1.355-.5,2.836,2.836,0,0,0-1.873-.673Z" transform="translate(-534 -295.263)" fill-rule="evenodd"/></g></g><path d="M544.457,309.231a1.574,1.574,0,0,1-.478,1.23,1.95,1.95,0,0,1-1.358.434h-.367v1.576h-1.307V307.72h1.674a2.072,2.072,0,0,1,1.376.393A1.391,1.391,0,0,1,544.457,309.231Zm-2.2.617h.238a.656.656,0,0,0,.468-.162.583.583,0,0,0,.174-.448q0-.481-.542-.481h-.337Zm4.1,2.4a3.987,3.987,0,0,1-1.4-.318v-1.079a4.8,4.8,0,0,0,.834.32,2.927,2.927,0,0,0,.791.128.954.954,0,0,0,.412-.066.231.231,0,0,0,.131-.222.225.225,0,0,0-.094-.182,1.477,1.477,0,0,0-.315-.169q-.294-.122-.594-.227a2.692,2.692,0,0,1-.678-.343,1.209,1.209,0,0,1-.376-.425,1.312,1.312,0,0,1-.117-.587,1.048,1.048,0,0,1,.351-.838,1.881,1.881,0,0,1,1.052-.374v-.445h.685v.439a3.942,3.942,0,0,1,1.327.318l-.394.926a3.133,3.133,0,0,0-1.247-.305.786.786,0,0,0-.372.063.206.206,0,0,0-.081.079.2.2,0,0,0-.027.108.228.228,0,0,0,.078.178,1.1,1.1,0,0,0,.269.156q.192.086.533.2a2.593,2.593,0,0,1,.993.547,1.083,1.083,0,0,1,.3.792,1.18,1.18,0,0,1-.352.887,1.73,1.73,0,0,1-1.027.423v.627h-.685v-.608Z" transform="translate(-538.229 -302.664)" fill="#fff" fill-rule="evenodd"/></g></g></svg>