<svg xmlns="http://www.w3.org/2000/svg" width="101.785" height="73.706" viewBox="0 0 101.785 73.706"><g transform="translate(0 -70.621)"><path d="M94.766,137.308H7.02A7.02,7.02,0,0,1,0,130.288V77.641a7.02,7.02,0,0,1,7.02-7.02H94.766a7.02,7.02,0,0,1,7.02,7.02v52.648A7.02,7.02,0,0,1,94.766,137.308Z" fill="#e4eaf8"/><path d="M86.415,300.138A15.759,15.759,0,0,0,71.539,321.2h29.752a15.759,15.759,0,0,0-14.876-21.059Z" transform="translate(-56.582 -183.889)" fill="#d5dced"/><path d="M79.183,158.579H37.065a1.755,1.755,0,0,1-1.755-1.755V107.686a1.755,1.755,0,0,1,1.755-1.755H79.183a1.755,1.755,0,0,1,1.755,1.755v49.138A1.755,1.755,0,0,1,79.183,158.579Z" transform="translate(-28.29 -28.29)" fill="#afb9d2"/><path d="M71.138,314.177h31.383a15.789,15.789,0,0,0-31.383,0Z" transform="translate(-56.996 -183.889)" fill="#959cb5"/><path d="M100.453,186.921a1.755,1.755,0,0,0,1.755-1.755v-4.49a3.51,3.51,0,0,0-2.4-3.33l-6.932-2.311a1.755,1.755,0,0,1-1.2-1.661l-.007-3.121a3.509,3.509,0,0,0,1.928-2.848l.383-4.179a3.487,3.487,0,0,0,1.208-2.63v-8.775a1.755,1.755,0,0,0-1.755-1.755H82.9a5.265,5.265,0,0,0-5.265,5.265V160.6a3.486,3.486,0,0,0,1.208,2.63l.383,4.179a3.51,3.51,0,0,0,1.928,2.848l-.007,3.121a1.754,1.754,0,0,1-1.2,1.661l-6.932,2.311a3.51,3.51,0,0,0-2.4,3.33v4.49a1.755,1.755,0,0,0,1.755,1.755Z" transform="translate(-56.58 -63.653)" fill="#e4eaf8"/><path d="M317.634,118.268H293.065a1.755,1.755,0,0,1,0-3.51h24.569a1.755,1.755,0,1,1,0,3.51Z" transform="translate(-233.398 -35.363)" fill="#7f8499"/><path d="M326.408,153.578H293.065a1.755,1.755,0,0,1,0-3.51h33.343a1.755,1.755,0,0,1,0,3.51Z" transform="translate(-233.398 -63.653)" fill="#707487"/><path d="M368.844,277.164H346.03a1.755,1.755,0,1,1,0-3.51h22.814a1.755,1.755,0,0,1,0,3.51Z" transform="translate(-275.833 -162.67)" fill="#959cb5"/><path d="M296.575,277.164h-3.51a1.755,1.755,0,0,1,0-3.51h3.51a1.755,1.755,0,0,1,0,3.51Z" transform="translate(-233.398 -162.67)" fill="#7f8499"/><path d="M363.579,312.475H346.03a1.755,1.755,0,1,1,0-3.51h17.549a1.755,1.755,0,1,1,0,3.51Z" transform="translate(-275.833 -190.961)" fill="#959cb5"/><path d="M296.575,312.475h-3.51a1.755,1.755,0,0,1,0-3.51h3.51a1.755,1.755,0,0,1,0,3.51Z" transform="translate(-233.398 -190.961)" fill="#7f8499"/><path d="M363.579,347.785H346.03a1.755,1.755,0,1,1,0-3.51h17.549a1.755,1.755,0,1,1,0,3.51Z" transform="translate(-275.833 -219.252)" fill="#959cb5"/><path d="M296.575,347.785h-3.51a1.755,1.755,0,0,1,0-3.51h3.51a1.755,1.755,0,0,1,0,3.51Z" transform="translate(-233.398 -219.252)" fill="#7f8499"/><circle cx="4.387" cy="4.387" r="4.387" transform="translate(58.79 96.067)" fill="#27ae60"/><g transform="translate(72.829 96.067)"><circle cx="4.387" cy="4.387" r="4.387" fill="#f1c40e"/><circle cx="4.387" cy="4.387" r="4.387" transform="translate(14.039)" fill="#f1c40e"/></g><path d="M110.28,307.158a15.791,15.791,0,0,0-26.262,0Z" transform="translate(-67.315 -183.889)" fill="#d5dced"/><circle cx="12.284" cy="12.284" r="12.284" transform="translate(17.549 119.759)" fill="#27ae60"/><path d="M120.607,363.633a1.745,1.745,0,0,1-1.141-.422l-4.094-3.51a1.754,1.754,0,0,1,2.283-2.665l2.805,2.405,5.289-5.769a1.755,1.755,0,0,1,2.588,2.372l-6.435,7.02A1.751,1.751,0,0,1,120.607,363.633Z" transform="translate(-91.944 -226.325)" fill="#fff"/></g></svg>